<svg width="1203" height="256" viewBox="0 0 1203 256" fill="none" xmlns="http://www.w3.org/2000/svg">
<g clip-path="url(#clip0_92_38)">
<rect width="1203" height="256" fill="white"/>
<path d="M855.111 109.792H860.174C859.91 112.218 859.216 114.389 858.091 116.305C856.966 118.221 855.375 119.741 853.318 120.866C851.262 121.974 848.695 122.527 845.619 122.527C843.369 122.527 841.321 122.105 839.476 121.262C837.647 120.418 836.074 119.223 834.756 117.676C833.438 116.111 832.418 114.239 831.697 112.06C830.994 109.862 830.643 107.419 830.643 104.729V100.906C830.643 98.2168 830.994 95.7822 831.697 93.6025C832.418 91.4053 833.446 89.5244 834.782 87.96C836.136 86.3955 837.762 85.1914 839.66 84.3477C841.559 83.5039 843.694 83.082 846.067 83.082C848.968 83.082 851.42 83.627 853.424 84.7168C855.428 85.8066 856.983 87.3184 858.091 89.252C859.216 91.168 859.91 93.3916 860.174 95.9229H855.111C854.865 94.1299 854.408 92.5918 853.74 91.3086C853.072 90.0078 852.123 89.0059 850.893 88.3027C849.662 87.5996 848.054 87.248 846.067 87.248C844.362 87.248 842.859 87.5732 841.559 88.2236C840.275 88.874 839.194 89.7969 838.315 90.9922C837.454 92.1875 836.804 93.6201 836.364 95.29C835.925 96.96 835.705 98.8145 835.705 100.854V104.729C835.705 106.61 835.898 108.377 836.285 110.029C836.689 111.682 837.296 113.132 838.104 114.38C838.913 115.628 839.941 116.612 841.189 117.333C842.438 118.036 843.914 118.388 845.619 118.388C847.781 118.388 849.504 118.045 850.787 117.359C852.07 116.674 853.037 115.689 853.688 114.406C854.355 113.123 854.83 111.585 855.111 109.792ZM880.503 83.6094V122H875.493V83.6094H880.503ZM892.843 83.6094V87.7754H863.18V83.6094H892.843ZM910.641 87.0107L897.932 122H892.737L907.371 83.6094H910.72L910.641 87.0107ZM921.293 122L908.558 87.0107L908.479 83.6094H911.827L926.514 122H921.293ZM920.634 107.788V111.954H899.065V107.788H920.634ZM942.65 104.466L928.939 83.6094H934.898L945.103 100.247H952.327L951.51 104.466H942.65ZM945.393 104.07L934.239 122H927.911L942.176 99.6934L945.393 104.07ZM954.516 83.6094V122H949.479V83.6094H954.516ZM974.871 83.6094L961.107 104.466H952.512L951.721 100.247H958.682L968.886 83.6094H974.871ZM969.545 122L958.418 104.07L961.661 99.6934L975.873 122H969.545ZM985.998 113.193L1004.9 83.6094H1009.99V122H1004.9V92.3896L985.998 122H980.936V83.6094H985.998V113.193ZM1033.41 106.944H1023.15V102.805H1033.41C1035.39 102.805 1037 102.488 1038.23 101.855C1039.46 101.223 1040.36 100.344 1040.92 99.2188C1041.5 98.0938 1041.79 96.8105 1041.79 95.3691C1041.79 94.0508 1041.5 92.8115 1040.92 91.6514C1040.36 90.4912 1039.46 89.5596 1038.23 88.8564C1037 88.1357 1035.39 87.7754 1033.41 87.7754H1024.34V122H1019.25V83.6094H1033.41C1036.31 83.6094 1038.76 84.1104 1040.76 85.1123C1042.77 86.1143 1044.29 87.5029 1045.32 89.2783C1046.36 91.0361 1046.88 93.0488 1046.88 95.3164C1046.88 97.7773 1046.36 99.8779 1045.32 101.618C1044.29 103.358 1042.77 104.686 1040.76 105.6C1038.76 106.496 1036.31 106.944 1033.41 106.944ZM1082.87 101.592V104.018C1082.87 106.9 1082.51 109.484 1081.79 111.77C1081.07 114.055 1080.03 115.997 1078.68 117.597C1077.33 119.196 1075.7 120.418 1073.8 121.262C1071.92 122.105 1069.81 122.527 1067.47 122.527C1065.21 122.527 1063.12 122.105 1061.22 121.262C1059.34 120.418 1057.71 119.196 1056.32 117.597C1054.95 115.997 1053.88 114.055 1053.13 111.77C1052.37 109.484 1052 106.9 1052 104.018V101.592C1052 98.709 1052.36 96.1338 1053.1 93.8662C1053.86 91.5811 1054.92 89.6387 1056.29 88.0391C1057.66 86.4219 1059.29 85.1914 1061.17 84.3477C1063.07 83.5039 1065.15 83.082 1067.42 83.082C1069.76 83.082 1071.87 83.5039 1073.75 84.3477C1075.65 85.1914 1077.27 86.4219 1078.63 88.0391C1080 89.6387 1081.04 91.5811 1081.76 93.8662C1082.5 96.1338 1082.87 98.709 1082.87 101.592ZM1077.83 104.018V101.539C1077.83 99.2539 1077.6 97.2324 1077.12 95.4746C1076.67 93.7168 1075.99 92.2402 1075.09 91.0449C1074.2 89.8496 1073.1 88.9443 1071.8 88.3291C1070.51 87.7139 1069.05 87.4062 1067.42 87.4062C1065.84 87.4062 1064.41 87.7139 1063.12 88.3291C1061.86 88.9443 1060.77 89.8496 1059.85 91.0449C1058.96 92.2402 1058.26 93.7168 1057.77 95.4746C1057.28 97.2324 1057.03 99.2539 1057.03 101.539V104.018C1057.03 106.32 1057.28 108.359 1057.77 110.135C1058.26 111.893 1058.96 113.378 1059.88 114.591C1060.81 115.786 1061.91 116.691 1063.17 117.307C1064.46 117.922 1065.89 118.229 1067.47 118.229C1069.12 118.229 1070.59 117.922 1071.88 117.307C1073.16 116.691 1074.24 115.786 1075.12 114.591C1076.02 113.378 1076.69 111.893 1077.15 110.135C1077.61 108.359 1077.83 106.32 1077.83 104.018ZM1104.18 104.044H1094.45L1094.39 99.957H1103.23C1104.69 99.957 1105.96 99.7109 1107.05 99.2188C1108.14 98.7266 1108.98 98.0234 1109.58 97.1094C1110.2 96.1777 1110.5 95.0703 1110.5 93.7871C1110.5 92.3809 1110.23 91.2383 1109.69 90.3594C1109.16 89.4629 1108.34 88.8125 1107.23 88.4082C1106.14 87.9863 1104.76 87.7754 1103.07 87.7754H1095.58V122H1090.49V83.6094H1103.07C1105.04 83.6094 1106.79 83.8115 1108.34 84.2158C1109.89 84.6025 1111.2 85.2178 1112.27 86.0615C1113.36 86.8877 1114.19 87.9424 1114.75 89.2256C1115.31 90.5088 1115.59 92.0469 1115.59 93.8398C1115.59 95.4219 1115.19 96.8545 1114.38 98.1377C1113.57 99.4033 1112.45 100.44 1111 101.249C1109.58 102.058 1107.91 102.576 1106 102.805L1104.18 104.044ZM1103.94 122H1092.44L1095.32 117.86H1103.94C1105.56 117.86 1106.93 117.579 1108.05 117.017C1109.19 116.454 1110.06 115.663 1110.66 114.644C1111.26 113.606 1111.56 112.385 1111.56 110.979C1111.56 109.555 1111.3 108.324 1110.79 107.287C1110.28 106.25 1109.48 105.45 1108.39 104.888C1107.3 104.325 1105.9 104.044 1104.18 104.044H1096.92L1096.98 99.957H1106.89L1107.97 101.434C1109.82 101.592 1111.38 102.119 1112.67 103.016C1113.95 103.895 1114.92 105.02 1115.59 106.391C1116.28 107.762 1116.62 109.273 1116.62 110.926C1116.62 113.316 1116.09 115.338 1115.04 116.99C1114 118.625 1112.53 119.873 1110.64 120.734C1108.74 121.578 1106.5 122 1103.94 122ZM1129.46 83.6094V122H1124.37V83.6094H1129.46ZM1153.11 83.6094L1136.45 104.729H1127.43L1126.64 100.511H1133.42L1146.81 83.6094H1153.11ZM1148 122L1133.58 104.07L1136.42 99.6143L1154.22 122H1148ZM1173.05 87.0107L1160.34 122H1155.14L1169.78 83.6094H1173.13L1173.05 87.0107ZM1183.7 122L1170.96 87.0107L1170.88 83.6094H1174.23L1188.92 122H1183.7ZM1183.04 107.788V111.954H1161.47V107.788H1183.04ZM1055.84 172.449H1046.48L1046.43 168.547H1054.08C1055.59 168.547 1056.85 168.397 1057.85 168.099C1058.87 167.8 1059.63 167.352 1060.14 166.754C1060.65 166.156 1060.91 165.418 1060.91 164.539C1060.91 163.854 1060.76 163.256 1060.46 162.746C1060.18 162.219 1059.75 161.788 1059.17 161.454C1058.59 161.103 1057.87 160.848 1057 160.689C1056.16 160.514 1055.17 160.426 1054.03 160.426H1047.78V185H1042.9V156.471H1054.03C1055.84 156.471 1057.46 156.629 1058.9 156.945C1060.36 157.262 1061.6 157.745 1062.62 158.396C1063.66 159.028 1064.45 159.837 1064.99 160.821C1065.54 161.806 1065.81 162.966 1065.81 164.302C1065.81 165.163 1065.64 165.98 1065.28 166.754C1064.93 167.527 1064.41 168.213 1063.73 168.811C1063.04 169.408 1062.2 169.9 1061.2 170.287C1060.2 170.656 1059.04 170.894 1057.74 170.999L1055.84 172.449ZM1055.84 185H1044.72L1047.14 181.045H1055.84C1057.2 181.045 1058.32 180.878 1059.22 180.544C1060.12 180.192 1060.78 179.7 1061.22 179.067C1061.68 178.417 1061.91 177.644 1061.91 176.747C1061.91 175.851 1061.68 175.086 1061.22 174.453C1060.78 173.803 1060.12 173.311 1059.22 172.977C1058.32 172.625 1057.2 172.449 1055.84 172.449H1048.44L1048.49 168.547H1057.74L1059.51 170.023C1061.07 170.146 1062.4 170.533 1063.49 171.184C1064.58 171.834 1065.41 172.66 1065.97 173.662C1066.53 174.646 1066.81 175.719 1066.81 176.879C1066.81 178.215 1066.56 179.393 1066.05 180.412C1065.56 181.432 1064.84 182.284 1063.89 182.97C1062.94 183.638 1061.79 184.147 1060.43 184.499C1059.08 184.833 1057.55 185 1055.84 185ZM1192.56 182.416C1192.56 181.59 1192.81 180.896 1193.32 180.333C1193.85 179.753 1194.61 179.463 1195.59 179.463C1196.58 179.463 1197.32 179.753 1197.83 180.333C1198.36 180.896 1198.62 181.59 1198.62 182.416C1198.62 183.225 1198.36 183.91 1197.83 184.473C1197.32 185.035 1196.58 185.316 1195.59 185.316C1194.61 185.316 1193.85 185.035 1193.32 184.473C1192.81 183.91 1192.56 183.225 1192.56 182.416Z" fill="black"/>
<path d="M1101.7 150.011L1088.99 185H1083.79L1098.43 146.609H1101.78L1101.7 150.011ZM1112.35 185L1099.61 150.011L1099.54 146.609H1102.88L1117.57 185H1112.35ZM1111.69 170.788V174.954H1090.12V170.788H1111.69ZM1147.26 163.774V167.94H1131.52V163.774H1147.26ZM1122.16 172.792H1127.22C1127.5 174.603 1127.97 176.149 1128.62 177.433C1129.29 178.716 1130.26 179.7 1131.54 180.386C1132.83 181.054 1134.55 181.388 1136.71 181.388C1138.42 181.388 1139.89 181.036 1141.14 180.333C1142.39 179.612 1143.42 178.628 1144.23 177.38C1145.04 176.132 1145.63 174.682 1146.02 173.029C1146.42 171.377 1146.63 169.61 1146.63 167.729V163.88C1146.63 162.245 1146.49 160.733 1146.21 159.345C1145.92 157.938 1145.5 156.682 1144.94 155.574C1144.38 154.449 1143.67 153.491 1142.83 152.7C1142 151.909 1141.04 151.303 1139.93 150.881C1138.84 150.459 1137.62 150.248 1136.26 150.248C1134.3 150.248 1132.69 150.6 1131.44 151.303C1130.21 152.006 1129.26 153.008 1128.59 154.309C1127.94 155.592 1127.48 157.13 1127.22 158.923H1122.16C1122.42 156.392 1123.12 154.168 1124.24 152.252C1125.37 150.318 1126.92 148.807 1128.91 147.717C1130.91 146.627 1133.36 146.082 1136.26 146.082C1138.64 146.082 1140.77 146.504 1142.67 147.348C1144.57 148.191 1146.19 149.396 1147.52 150.96C1148.88 152.524 1149.91 154.405 1150.61 156.603C1151.33 158.8 1151.69 161.243 1151.69 163.933V167.729C1151.69 170.419 1151.33 172.862 1150.61 175.06C1149.91 177.239 1148.89 179.111 1147.58 180.676C1146.26 182.223 1144.68 183.418 1142.83 184.262C1141 185.105 1138.96 185.527 1136.71 185.527C1133.64 185.527 1131.07 184.974 1129.01 183.866C1126.96 182.741 1125.37 181.221 1124.24 179.305C1123.13 177.389 1122.44 175.218 1122.16 172.792ZM1182.57 146.609V150.775H1164.06V185H1158.99V146.609H1182.57ZM1162.87 162.245H1173.34C1176.15 162.245 1178.52 162.72 1180.46 163.669C1182.39 164.601 1183.86 165.91 1184.86 167.598C1185.86 169.285 1186.36 171.263 1186.36 173.53C1186.36 175.218 1186.08 176.765 1185.52 178.171C1184.96 179.56 1184.12 180.772 1183.01 181.81C1181.91 182.829 1180.54 183.62 1178.93 184.183C1177.31 184.728 1175.45 185 1173.34 185H1158.99V146.609H1164.08V180.86H1173.34C1175.22 180.86 1176.74 180.518 1177.9 179.832C1179.08 179.129 1179.94 178.215 1180.48 177.09C1181.03 175.965 1181.3 174.761 1181.3 173.478C1181.3 172.194 1181.03 171.017 1180.48 169.944C1179.94 168.872 1179.08 168.02 1177.9 167.387C1176.74 166.736 1175.22 166.411 1173.34 166.411H1162.87V162.245Z" fill="url(#paint0_linear_92_38)"/>
<path d="M676.33 228.781V243H674.455V230.324H667.443V243H665.559V228.781H676.33ZM681.281 234.465V247.062H679.465V232.434H681.125L681.281 234.465ZM688.4 237.629V237.834C688.4 238.602 688.309 239.315 688.127 239.973C687.945 240.624 687.678 241.19 687.326 241.672C686.981 242.154 686.555 242.528 686.047 242.795C685.539 243.062 684.956 243.195 684.299 243.195C683.628 243.195 683.036 243.085 682.521 242.863C682.007 242.642 681.571 242.32 681.213 241.896C680.855 241.473 680.568 240.965 680.354 240.373C680.145 239.781 680.002 239.113 679.924 238.371V237.277C680.002 236.496 680.148 235.796 680.363 235.178C680.578 234.559 680.861 234.032 681.213 233.596C681.571 233.153 682.004 232.818 682.512 232.59C683.02 232.355 683.605 232.238 684.27 232.238C684.934 232.238 685.523 232.368 686.037 232.629C686.551 232.883 686.984 233.247 687.336 233.723C687.688 234.198 687.951 234.768 688.127 235.432C688.309 236.089 688.4 236.822 688.4 237.629ZM686.584 237.834V237.629C686.584 237.102 686.529 236.607 686.418 236.145C686.307 235.676 686.135 235.266 685.9 234.914C685.673 234.556 685.38 234.276 685.021 234.074C684.663 233.866 684.237 233.762 683.742 233.762C683.286 233.762 682.889 233.84 682.551 233.996C682.219 234.152 681.936 234.364 681.701 234.631C681.467 234.891 681.275 235.191 681.125 235.529C680.982 235.861 680.874 236.206 680.803 236.564V239.094C680.933 239.549 681.115 239.979 681.35 240.383C681.584 240.78 681.896 241.102 682.287 241.35C682.678 241.59 683.169 241.711 683.762 241.711C684.25 241.711 684.67 241.61 685.021 241.408C685.38 241.2 685.673 240.917 685.9 240.559C686.135 240.201 686.307 239.79 686.418 239.328C686.529 238.859 686.584 238.361 686.584 237.834ZM690.227 237.834V237.609C690.227 236.848 690.337 236.141 690.559 235.49C690.78 234.833 691.099 234.263 691.516 233.781C691.932 233.293 692.437 232.915 693.029 232.648C693.622 232.375 694.286 232.238 695.021 232.238C695.764 232.238 696.431 232.375 697.023 232.648C697.622 232.915 698.13 233.293 698.547 233.781C698.97 234.263 699.292 234.833 699.514 235.49C699.735 236.141 699.846 236.848 699.846 237.609V237.834C699.846 238.596 699.735 239.302 699.514 239.953C699.292 240.604 698.97 241.174 698.547 241.662C698.13 242.144 697.626 242.521 697.033 242.795C696.447 243.062 695.783 243.195 695.041 243.195C694.299 243.195 693.632 243.062 693.039 242.795C692.447 242.521 691.939 242.144 691.516 241.662C691.099 241.174 690.78 240.604 690.559 239.953C690.337 239.302 690.227 238.596 690.227 237.834ZM692.033 237.609V237.834C692.033 238.361 692.095 238.859 692.219 239.328C692.342 239.79 692.528 240.201 692.775 240.559C693.029 240.917 693.345 241.2 693.723 241.408C694.1 241.61 694.54 241.711 695.041 241.711C695.536 241.711 695.969 241.61 696.34 241.408C696.717 241.2 697.03 240.917 697.277 240.559C697.525 240.201 697.71 239.79 697.834 239.328C697.964 238.859 698.029 238.361 698.029 237.834V237.609C698.029 237.089 697.964 236.597 697.834 236.135C697.71 235.666 697.521 235.253 697.268 234.895C697.02 234.53 696.708 234.243 696.33 234.035C695.959 233.827 695.523 233.723 695.021 233.723C694.527 233.723 694.09 233.827 693.713 234.035C693.342 234.243 693.029 234.53 692.775 234.895C692.528 235.253 692.342 235.666 692.219 236.135C692.095 236.597 692.033 237.089 692.033 237.609ZM704.064 240.139L708.938 232.434H710.754V243H708.938V235.295L704.064 243H702.268V232.434H704.064V240.139ZM707.951 228.605H709.416C709.416 229.113 709.299 229.566 709.064 229.963C708.83 230.354 708.495 230.66 708.059 230.881C707.622 231.102 707.105 231.213 706.506 231.213C705.601 231.213 704.885 230.972 704.357 230.49C703.837 230.002 703.576 229.374 703.576 228.605H705.041C705.041 228.99 705.152 229.328 705.373 229.621C705.594 229.914 705.972 230.061 706.506 230.061C707.027 230.061 707.398 229.914 707.619 229.621C707.84 229.328 707.951 228.99 707.951 228.605ZM715.559 232.434H717.365L717.209 236.389C717.17 237.391 717.056 238.257 716.867 238.986C716.678 239.715 716.438 240.337 716.145 240.852C715.852 241.359 715.523 241.786 715.158 242.131C714.8 242.476 714.429 242.766 714.045 243H713.146L713.195 241.525L713.566 241.516C713.781 241.262 713.99 241.001 714.191 240.734C714.393 240.461 714.579 240.139 714.748 239.768C714.917 239.39 715.057 238.931 715.168 238.391C715.285 237.844 715.36 237.176 715.393 236.389L715.559 232.434ZM716.008 232.434H722.365V243H720.559V234.104H716.008V232.434ZM712.736 241.516H723.723V246.115H721.916V243H714.543V246.115H712.727L712.736 241.516ZM727.678 240.139L732.551 232.434H734.367V243H732.551V235.295L727.678 243H725.881V232.434H727.678V240.139ZM746.457 241.711C746.887 241.711 747.284 241.623 747.648 241.447C748.013 241.271 748.312 241.031 748.547 240.725C748.781 240.412 748.915 240.057 748.947 239.66H750.666C750.633 240.285 750.422 240.868 750.031 241.408C749.647 241.942 749.143 242.375 748.518 242.707C747.893 243.033 747.206 243.195 746.457 243.195C745.663 243.195 744.969 243.055 744.377 242.775C743.791 242.495 743.303 242.111 742.912 241.623C742.528 241.135 742.238 240.575 742.043 239.943C741.854 239.305 741.76 238.632 741.76 237.922V237.512C741.76 236.802 741.854 236.132 742.043 235.5C742.238 234.862 742.528 234.299 742.912 233.811C743.303 233.322 743.791 232.938 744.377 232.658C744.969 232.378 745.663 232.238 746.457 232.238C747.284 232.238 748.007 232.408 748.625 232.746C749.243 233.078 749.729 233.534 750.08 234.113C750.438 234.686 750.633 235.337 750.666 236.066H748.947C748.915 235.63 748.791 235.236 748.576 234.885C748.368 234.533 748.081 234.253 747.717 234.045C747.359 233.83 746.939 233.723 746.457 233.723C745.904 233.723 745.438 233.833 745.061 234.055C744.689 234.27 744.393 234.562 744.172 234.934C743.957 235.298 743.801 235.705 743.703 236.154C743.612 236.597 743.566 237.049 743.566 237.512V237.922C743.566 238.384 743.612 238.84 743.703 239.289C743.794 239.738 743.947 240.145 744.162 240.51C744.383 240.874 744.68 241.167 745.051 241.389C745.428 241.604 745.897 241.711 746.457 241.711ZM757.004 232.434V243H755.188V232.434H757.004ZM760.549 232.434V233.898H751.711V232.434H760.549ZM768.4 241.193V235.754C768.4 235.337 768.316 234.976 768.146 234.67C767.984 234.357 767.736 234.117 767.404 233.947C767.072 233.778 766.662 233.693 766.174 233.693C765.718 233.693 765.318 233.771 764.973 233.928C764.634 234.084 764.367 234.289 764.172 234.543C763.983 234.797 763.889 235.07 763.889 235.363H762.082C762.082 234.986 762.18 234.611 762.375 234.24C762.57 233.869 762.85 233.534 763.215 233.234C763.586 232.928 764.029 232.688 764.543 232.512C765.064 232.329 765.643 232.238 766.281 232.238C767.049 232.238 767.727 232.368 768.312 232.629C768.905 232.889 769.367 233.283 769.699 233.811C770.038 234.331 770.207 234.986 770.207 235.773V240.695C770.207 241.047 770.236 241.421 770.295 241.818C770.36 242.215 770.454 242.557 770.578 242.844V243H768.693C768.602 242.792 768.531 242.515 768.479 242.17C768.426 241.818 768.4 241.493 768.4 241.193ZM768.713 236.594L768.732 237.863H766.906C766.392 237.863 765.933 237.906 765.529 237.99C765.126 238.068 764.787 238.189 764.514 238.352C764.24 238.514 764.032 238.719 763.889 238.967C763.745 239.208 763.674 239.491 763.674 239.816C763.674 240.148 763.749 240.451 763.898 240.725C764.048 240.998 764.273 241.216 764.572 241.379C764.878 241.535 765.253 241.613 765.695 241.613C766.249 241.613 766.737 241.496 767.16 241.262C767.583 241.027 767.919 240.741 768.166 240.402C768.42 240.064 768.557 239.735 768.576 239.416L769.348 240.285C769.302 240.559 769.178 240.861 768.977 241.193C768.775 241.525 768.505 241.844 768.166 242.15C767.834 242.45 767.437 242.701 766.975 242.902C766.519 243.098 766.005 243.195 765.432 243.195C764.715 243.195 764.087 243.055 763.547 242.775C763.013 242.495 762.596 242.121 762.297 241.652C762.004 241.177 761.857 240.646 761.857 240.061C761.857 239.494 761.968 238.996 762.189 238.566C762.411 238.13 762.73 237.769 763.146 237.482C763.563 237.189 764.064 236.968 764.65 236.818C765.236 236.669 765.891 236.594 766.613 236.594H768.713ZM776.252 238.4L772.248 232.434H774.426L777.16 236.809H779.27L779.006 238.4H776.252ZM777.238 238.215L774.172 243H771.887L776.096 236.906L777.238 238.215ZM780.197 232.434V243H778.391V232.434H780.197ZM786.359 232.434L782.355 238.4H779.602L779.318 236.809H781.438L784.172 232.434H786.359ZM784.426 243L781.35 238.215L782.512 236.906L786.711 243H784.426ZM790.334 240.139L795.207 232.434H797.023V243H795.207V235.295L790.334 243H788.537V232.434H790.334V240.139ZM801.73 234.465V247.062H799.914V232.434H801.574L801.73 234.465ZM808.85 237.629V237.834C808.85 238.602 808.758 239.315 808.576 239.973C808.394 240.624 808.127 241.19 807.775 241.672C807.43 242.154 807.004 242.528 806.496 242.795C805.988 243.062 805.406 243.195 804.748 243.195C804.077 243.195 803.485 243.085 802.971 242.863C802.456 242.642 802.02 242.32 801.662 241.896C801.304 241.473 801.018 240.965 800.803 240.373C800.594 239.781 800.451 239.113 800.373 238.371V237.277C800.451 236.496 800.598 235.796 800.812 235.178C801.027 234.559 801.311 234.032 801.662 233.596C802.02 233.153 802.453 232.818 802.961 232.59C803.469 232.355 804.055 232.238 804.719 232.238C805.383 232.238 805.972 232.368 806.486 232.629C807.001 232.883 807.434 233.247 807.785 233.723C808.137 234.198 808.4 234.768 808.576 235.432C808.758 236.089 808.85 236.822 808.85 237.629ZM807.033 237.834V237.629C807.033 237.102 806.978 236.607 806.867 236.145C806.757 235.676 806.584 235.266 806.35 234.914C806.122 234.556 805.829 234.276 805.471 234.074C805.113 233.866 804.686 233.762 804.191 233.762C803.736 233.762 803.339 233.84 803 233.996C802.668 234.152 802.385 234.364 802.15 234.631C801.916 234.891 801.724 235.191 801.574 235.529C801.431 235.861 801.324 236.206 801.252 236.564V239.094C801.382 239.549 801.564 239.979 801.799 240.383C802.033 240.78 802.346 241.102 802.736 241.35C803.127 241.59 803.618 241.711 804.211 241.711C804.699 241.711 805.119 241.61 805.471 241.408C805.829 241.2 806.122 240.917 806.35 240.559C806.584 240.201 806.757 239.79 806.867 239.328C806.978 238.859 807.033 238.361 807.033 237.834ZM810.676 237.834V237.609C810.676 236.848 810.786 236.141 811.008 235.49C811.229 234.833 811.548 234.263 811.965 233.781C812.382 233.293 812.886 232.915 813.479 232.648C814.071 232.375 814.735 232.238 815.471 232.238C816.213 232.238 816.88 232.375 817.473 232.648C818.072 232.915 818.579 233.293 818.996 233.781C819.419 234.263 819.742 234.833 819.963 235.49C820.184 236.141 820.295 236.848 820.295 237.609V237.834C820.295 238.596 820.184 239.302 819.963 239.953C819.742 240.604 819.419 241.174 818.996 241.662C818.579 242.144 818.075 242.521 817.482 242.795C816.896 243.062 816.232 243.195 815.49 243.195C814.748 243.195 814.081 243.062 813.488 242.795C812.896 242.521 812.388 242.144 811.965 241.662C811.548 241.174 811.229 240.604 811.008 239.953C810.786 239.302 810.676 238.596 810.676 237.834ZM812.482 237.609V237.834C812.482 238.361 812.544 238.859 812.668 239.328C812.792 239.79 812.977 240.201 813.225 240.559C813.479 240.917 813.794 241.2 814.172 241.408C814.549 241.61 814.989 241.711 815.49 241.711C815.985 241.711 816.418 241.61 816.789 241.408C817.167 241.2 817.479 240.917 817.727 240.559C817.974 240.201 818.16 239.79 818.283 239.328C818.413 238.859 818.479 238.361 818.479 237.834V237.609C818.479 237.089 818.413 236.597 818.283 236.135C818.16 235.666 817.971 235.253 817.717 234.895C817.469 234.53 817.157 234.243 816.779 234.035C816.408 233.827 815.972 233.723 815.471 233.723C814.976 233.723 814.54 233.827 814.162 234.035C813.791 234.243 813.479 234.53 813.225 234.895C812.977 235.253 812.792 235.666 812.668 236.135C812.544 236.597 812.482 237.089 812.482 237.609ZM827.521 238.352H824.055L824.035 236.906H826.867C827.427 236.906 827.893 236.851 828.264 236.74C828.641 236.63 828.924 236.464 829.113 236.242C829.302 236.021 829.396 235.747 829.396 235.422C829.396 235.168 829.341 234.947 829.23 234.758C829.126 234.562 828.967 234.403 828.752 234.279C828.537 234.149 828.27 234.055 827.951 233.996C827.639 233.931 827.271 233.898 826.848 233.898H824.533V243H822.727V232.434H826.848C827.518 232.434 828.12 232.492 828.654 232.609C829.195 232.727 829.654 232.906 830.031 233.146C830.415 233.381 830.708 233.68 830.91 234.045C831.112 234.41 831.213 234.839 831.213 235.334C831.213 235.653 831.148 235.956 831.018 236.242C830.887 236.529 830.695 236.783 830.441 237.004C830.188 237.225 829.875 237.408 829.504 237.551C829.133 237.688 828.706 237.775 828.225 237.814L827.521 238.352ZM827.521 243H823.4L824.299 241.535H827.521C828.023 241.535 828.439 241.473 828.771 241.35C829.104 241.219 829.351 241.037 829.514 240.803C829.683 240.562 829.768 240.275 829.768 239.943C829.768 239.611 829.683 239.328 829.514 239.094C829.351 238.853 829.104 238.671 828.771 238.547C828.439 238.417 828.023 238.352 827.521 238.352H824.777L824.797 236.906H828.225L828.879 237.453C829.458 237.499 829.95 237.642 830.354 237.883C830.757 238.124 831.063 238.43 831.271 238.801C831.48 239.165 831.584 239.562 831.584 239.992C831.584 240.487 831.49 240.923 831.301 241.301C831.118 241.678 830.852 241.994 830.5 242.248C830.148 242.495 829.722 242.684 829.221 242.814C828.719 242.938 828.153 243 827.521 243ZM835.969 232.434V243H834.162V232.434H835.969ZM842.902 232.434L837.893 238.488H835.363L835.09 236.906H837.16L840.705 232.434H842.902ZM840.959 243L837.072 238.215L838.234 236.906L843.254 243H840.959ZM847.795 241.906L850.734 232.434H852.668L848.43 244.631C848.332 244.891 848.202 245.171 848.039 245.471C847.883 245.777 847.681 246.066 847.434 246.34C847.186 246.613 846.887 246.835 846.535 247.004C846.19 247.18 845.777 247.268 845.295 247.268C845.152 247.268 844.969 247.248 844.748 247.209C844.527 247.17 844.37 247.137 844.279 247.111L844.27 245.646C844.322 245.653 844.403 245.66 844.514 245.666C844.631 245.679 844.712 245.686 844.758 245.686C845.168 245.686 845.516 245.63 845.803 245.52C846.089 245.415 846.33 245.236 846.525 244.982C846.727 244.735 846.9 244.393 847.043 243.957L847.795 241.906ZM845.637 232.434L848.381 240.637L848.85 242.541L847.551 243.205L843.664 232.434H845.637ZM864.221 238.352H860.754L860.734 236.906H863.566C864.126 236.906 864.592 236.851 864.963 236.74C865.34 236.63 865.624 236.464 865.812 236.242C866.001 236.021 866.096 235.747 866.096 235.422C866.096 235.168 866.04 234.947 865.93 234.758C865.826 234.562 865.666 234.403 865.451 234.279C865.236 234.149 864.969 234.055 864.65 233.996C864.338 233.931 863.97 233.898 863.547 233.898H861.232V243H859.426V232.434H863.547C864.217 232.434 864.82 232.492 865.354 232.609C865.894 232.727 866.353 232.906 866.73 233.146C867.115 233.381 867.408 233.68 867.609 234.045C867.811 234.41 867.912 234.839 867.912 235.334C867.912 235.653 867.847 235.956 867.717 236.242C867.587 236.529 867.395 236.783 867.141 237.004C866.887 237.225 866.574 237.408 866.203 237.551C865.832 237.688 865.406 237.775 864.924 237.814L864.221 238.352ZM864.221 243H860.1L860.998 241.535H864.221C864.722 241.535 865.139 241.473 865.471 241.35C865.803 241.219 866.05 241.037 866.213 240.803C866.382 240.562 866.467 240.275 866.467 239.943C866.467 239.611 866.382 239.328 866.213 239.094C866.05 238.853 865.803 238.671 865.471 238.547C865.139 238.417 864.722 238.352 864.221 238.352H861.477L861.496 236.906H864.924L865.578 237.453C866.158 237.499 866.649 237.642 867.053 237.883C867.456 238.124 867.762 238.43 867.971 238.801C868.179 239.165 868.283 239.562 868.283 239.992C868.283 240.487 868.189 240.923 868 241.301C867.818 241.678 867.551 241.994 867.199 242.248C866.848 242.495 866.421 242.684 865.92 242.814C865.419 242.938 864.852 243 864.221 243ZM875.188 237.834V237.609C875.188 236.848 875.298 236.141 875.52 235.49C875.741 234.833 876.06 234.263 876.477 233.781C876.893 233.293 877.398 232.915 877.99 232.648C878.583 232.375 879.247 232.238 879.982 232.238C880.725 232.238 881.392 232.375 881.984 232.648C882.583 232.915 883.091 233.293 883.508 233.781C883.931 234.263 884.253 234.833 884.475 235.49C884.696 236.141 884.807 236.848 884.807 237.609V237.834C884.807 238.596 884.696 239.302 884.475 239.953C884.253 240.604 883.931 241.174 883.508 241.662C883.091 242.144 882.587 242.521 881.994 242.795C881.408 243.062 880.744 243.195 880.002 243.195C879.26 243.195 878.592 243.062 878 242.795C877.408 242.521 876.9 242.144 876.477 241.662C876.06 241.174 875.741 240.604 875.52 239.953C875.298 239.302 875.188 238.596 875.188 237.834ZM876.994 237.609V237.834C876.994 238.361 877.056 238.859 877.18 239.328C877.303 239.79 877.489 240.201 877.736 240.559C877.99 240.917 878.306 241.2 878.684 241.408C879.061 241.61 879.501 241.711 880.002 241.711C880.497 241.711 880.93 241.61 881.301 241.408C881.678 241.2 881.991 240.917 882.238 240.559C882.486 240.201 882.671 239.79 882.795 239.328C882.925 238.859 882.99 238.361 882.99 237.834V237.609C882.99 237.089 882.925 236.597 882.795 236.135C882.671 235.666 882.482 235.253 882.229 234.895C881.981 234.53 881.669 234.243 881.291 234.035C880.92 233.827 880.484 233.723 879.982 233.723C879.488 233.723 879.051 233.827 878.674 234.035C878.303 234.243 877.99 234.53 877.736 234.895C877.489 235.253 877.303 235.666 877.18 236.135C877.056 236.597 876.994 237.089 876.994 237.609ZM888.273 232.434H890.08L889.924 236.389C889.885 237.391 889.771 238.257 889.582 238.986C889.393 239.715 889.152 240.337 888.859 240.852C888.566 241.359 888.238 241.786 887.873 242.131C887.515 242.476 887.144 242.766 886.76 243H885.861L885.91 241.525L886.281 241.516C886.496 241.262 886.704 241.001 886.906 240.734C887.108 240.461 887.294 240.139 887.463 239.768C887.632 239.39 887.772 238.931 887.883 238.391C888 237.844 888.075 237.176 888.107 236.389L888.273 232.434ZM888.723 232.434H895.08V243H893.273V234.104H888.723V232.434ZM885.451 241.516H896.438V246.115H894.631V243H887.258V246.115H885.441L885.451 241.516ZM905.607 237.014V238.479H900.021V237.014H905.607ZM900.402 232.434V243H898.596V232.434H900.402ZM907.072 232.434V243H905.256V232.434H907.072ZM909.504 237.834V237.609C909.504 236.848 909.615 236.141 909.836 235.49C910.057 234.833 910.376 234.263 910.793 233.781C911.21 233.293 911.714 232.915 912.307 232.648C912.899 232.375 913.563 232.238 914.299 232.238C915.041 232.238 915.708 232.375 916.301 232.648C916.9 232.915 917.408 233.293 917.824 233.781C918.247 234.263 918.57 234.833 918.791 235.49C919.012 236.141 919.123 236.848 919.123 237.609V237.834C919.123 238.596 919.012 239.302 918.791 239.953C918.57 240.604 918.247 241.174 917.824 241.662C917.408 242.144 916.903 242.521 916.311 242.795C915.725 243.062 915.061 243.195 914.318 243.195C913.576 243.195 912.909 243.062 912.316 242.795C911.724 242.521 911.216 242.144 910.793 241.662C910.376 241.174 910.057 240.604 909.836 239.953C909.615 239.302 909.504 238.596 909.504 237.834ZM911.311 237.609V237.834C911.311 238.361 911.372 238.859 911.496 239.328C911.62 239.79 911.805 240.201 912.053 240.559C912.307 240.917 912.622 241.2 913 241.408C913.378 241.61 913.817 241.711 914.318 241.711C914.813 241.711 915.246 241.61 915.617 241.408C915.995 241.2 916.307 240.917 916.555 240.559C916.802 240.201 916.988 239.79 917.111 239.328C917.242 238.859 917.307 238.361 917.307 237.834V237.609C917.307 237.089 917.242 236.597 917.111 236.135C916.988 235.666 916.799 235.253 916.545 234.895C916.298 234.53 915.985 234.243 915.607 234.035C915.236 233.827 914.8 233.723 914.299 233.723C913.804 233.723 913.368 233.827 912.99 234.035C912.619 234.243 912.307 234.53 912.053 234.895C911.805 235.253 911.62 235.666 911.496 236.135C911.372 236.597 911.311 237.089 911.311 237.609ZM923.342 240.139L928.215 232.434H930.031V243H928.215V235.295L923.342 243H921.545V232.434H923.342V240.139ZM927.229 228.605H928.693C928.693 229.113 928.576 229.566 928.342 229.963C928.107 230.354 927.772 230.66 927.336 230.881C926.9 231.102 926.382 231.213 925.783 231.213C924.878 231.213 924.162 230.972 923.635 230.49C923.114 230.002 922.854 229.374 922.854 228.605H924.318C924.318 228.99 924.429 229.328 924.65 229.621C924.872 229.914 925.249 230.061 925.783 230.061C926.304 230.061 926.675 229.914 926.896 229.621C927.118 229.328 927.229 228.99 927.229 228.605ZM939.846 240.139L944.719 232.434H946.535V243H944.719V235.295L939.846 243H938.049V232.434H939.846V240.139ZM953.381 237.951H951.438V236.838H953.234C953.736 236.838 954.133 236.776 954.426 236.652C954.719 236.522 954.927 236.343 955.051 236.115C955.174 235.887 955.236 235.62 955.236 235.314C955.236 235.041 955.165 234.784 955.021 234.543C954.885 234.296 954.663 234.097 954.357 233.947C954.051 233.791 953.641 233.713 953.127 233.713C952.71 233.713 952.333 233.788 951.994 233.938C951.656 234.081 951.385 234.279 951.184 234.533C950.988 234.781 950.891 235.061 950.891 235.373H949.084C949.084 234.729 949.266 234.175 949.631 233.713C950.002 233.244 950.493 232.883 951.105 232.629C951.724 232.375 952.398 232.248 953.127 232.248C953.739 232.248 954.286 232.316 954.768 232.453C955.256 232.583 955.669 232.779 956.008 233.039C956.346 233.293 956.604 233.612 956.779 233.996C956.962 234.374 957.053 234.813 957.053 235.314C957.053 235.673 956.968 236.011 956.799 236.33C956.63 236.649 956.385 236.932 956.066 237.18C955.747 237.421 955.36 237.609 954.904 237.746C954.455 237.883 953.947 237.951 953.381 237.951ZM951.438 237.268H953.381C954.012 237.268 954.569 237.329 955.051 237.453C955.533 237.57 955.936 237.746 956.262 237.98C956.587 238.215 956.831 238.505 956.994 238.85C957.163 239.188 957.248 239.579 957.248 240.021C957.248 240.516 957.147 240.962 956.945 241.359C956.75 241.75 956.47 242.082 956.105 242.355C955.741 242.629 955.305 242.837 954.797 242.98C954.296 243.124 953.739 243.195 953.127 243.195C952.443 243.195 951.779 243.078 951.135 242.844C950.49 242.609 949.96 242.248 949.543 241.76C949.126 241.265 948.918 240.637 948.918 239.875H950.725C950.725 240.194 950.826 240.497 951.027 240.783C951.229 241.07 951.509 241.301 951.867 241.477C952.232 241.652 952.652 241.74 953.127 241.74C953.635 241.74 954.058 241.662 954.396 241.506C954.735 241.35 954.989 241.141 955.158 240.881C955.334 240.62 955.422 240.337 955.422 240.031C955.422 239.634 955.344 239.315 955.188 239.074C955.031 238.833 954.79 238.658 954.465 238.547C954.146 238.43 953.736 238.371 953.234 238.371H951.438V237.268ZM971.613 232.434V233.928H966.506V232.434H971.613ZM973.205 232.434V243H971.398V232.434H973.205ZM966.066 232.434H967.883L967.609 237.531C967.564 238.319 967.489 239.016 967.385 239.621C967.287 240.22 967.15 240.734 966.975 241.164C966.805 241.594 966.59 241.945 966.33 242.219C966.076 242.486 965.77 242.684 965.412 242.814C965.054 242.938 964.641 243 964.172 243H963.605V241.408L963.996 241.379C964.276 241.359 964.514 241.294 964.709 241.184C964.911 241.073 965.08 240.91 965.217 240.695C965.354 240.474 965.464 240.191 965.549 239.846C965.64 239.501 965.708 239.09 965.754 238.615C965.806 238.14 965.845 237.587 965.871 236.955L966.066 232.434ZM979.084 241.906L982.023 232.434H983.957L979.719 244.631C979.621 244.891 979.491 245.171 979.328 245.471C979.172 245.777 978.97 246.066 978.723 246.34C978.475 246.613 978.176 246.835 977.824 247.004C977.479 247.18 977.066 247.268 976.584 247.268C976.441 247.268 976.258 247.248 976.037 247.209C975.816 247.17 975.66 247.137 975.568 247.111L975.559 245.646C975.611 245.653 975.692 245.66 975.803 245.666C975.92 245.679 976.001 245.686 976.047 245.686C976.457 245.686 976.805 245.63 977.092 245.52C977.378 245.415 977.619 245.236 977.814 244.982C978.016 244.735 978.189 244.393 978.332 243.957L979.084 241.906ZM976.926 232.434L979.67 240.637L980.139 242.541L978.84 243.205L974.953 232.434H976.926ZM993.557 232.434V243H991.75V232.434H993.557ZM992.941 237.287V238.771C992.577 238.908 992.206 239.032 991.828 239.143C991.457 239.247 991.063 239.331 990.646 239.396C990.236 239.455 989.79 239.484 989.309 239.484C988.475 239.484 987.753 239.341 987.141 239.055C986.529 238.762 986.057 238.322 985.725 237.736C985.393 237.144 985.227 236.398 985.227 235.5V232.414H987.033V235.5C987.033 236.086 987.121 236.561 987.297 236.926C987.473 237.29 987.73 237.561 988.068 237.736C988.407 237.906 988.82 237.99 989.309 237.99C989.777 237.99 990.217 237.961 990.627 237.902C991.044 237.837 991.441 237.753 991.818 237.648C992.202 237.544 992.577 237.424 992.941 237.287ZM996.623 232.434H998.43V241.516H1002.3V232.434H1004.11V241.516H1007.97V232.434H1009.78V243H996.623V232.434ZM1017.04 243.195C1016.31 243.195 1015.64 243.072 1015.04 242.824C1014.45 242.57 1013.94 242.215 1013.51 241.76C1013.08 241.304 1012.76 240.764 1012.53 240.139C1012.3 239.514 1012.19 238.83 1012.19 238.088V237.678C1012.19 236.818 1012.32 236.053 1012.57 235.383C1012.82 234.706 1013.17 234.133 1013.61 233.664C1014.04 233.195 1014.54 232.84 1015.09 232.6C1015.64 232.359 1016.22 232.238 1016.81 232.238C1017.56 232.238 1018.21 232.368 1018.76 232.629C1019.32 232.889 1019.77 233.254 1020.12 233.723C1020.47 234.185 1020.73 234.732 1020.9 235.363C1021.07 235.988 1021.15 236.672 1021.15 237.414V238.225H1013.26V236.75H1019.35V236.613C1019.32 236.145 1019.22 235.689 1019.05 235.246C1018.89 234.803 1018.63 234.439 1018.27 234.152C1017.92 233.866 1017.43 233.723 1016.81 233.723C1016.4 233.723 1016.02 233.811 1015.68 233.986C1015.33 234.156 1015.03 234.41 1014.79 234.748C1014.54 235.087 1014.35 235.5 1014.21 235.988C1014.07 236.477 1014.01 237.04 1014.01 237.678V238.088C1014.01 238.589 1014.07 239.061 1014.21 239.504C1014.35 239.94 1014.56 240.324 1014.83 240.656C1015.1 240.988 1015.43 241.249 1015.81 241.438C1016.2 241.626 1016.65 241.721 1017.14 241.721C1017.78 241.721 1018.32 241.59 1018.76 241.33C1019.2 241.07 1019.59 240.721 1019.92 240.285L1021.02 241.154C1020.79 241.499 1020.5 241.828 1020.15 242.141C1019.8 242.453 1019.36 242.707 1018.85 242.902C1018.34 243.098 1017.74 243.195 1017.04 243.195ZM1025.22 240.139L1030.09 232.434H1031.91V243H1030.09V235.295L1025.22 243H1023.42V232.434H1025.22V240.139ZM1029.1 228.605H1030.57C1030.57 229.113 1030.45 229.566 1030.22 229.963C1029.98 230.354 1029.65 230.66 1029.21 230.881C1028.77 231.102 1028.26 231.213 1027.66 231.213C1026.75 231.213 1026.04 230.972 1025.51 230.49C1024.99 230.002 1024.73 229.374 1024.73 228.605H1026.19C1026.19 228.99 1026.3 229.328 1026.53 229.621C1026.75 229.914 1027.12 230.061 1027.66 230.061C1028.18 230.061 1028.55 229.914 1028.77 229.621C1028.99 229.328 1029.1 228.99 1029.1 228.605ZM1041.73 232.434V243H1039.92V232.434H1041.73ZM1048.66 232.434L1043.65 238.488H1041.12L1040.85 236.906H1042.92L1046.47 232.434H1048.66ZM1046.72 243L1042.83 238.215L1044 236.906L1049.02 243H1046.72ZM1049.89 237.834V237.609C1049.89 236.848 1050.01 236.141 1050.23 235.49C1050.45 234.833 1050.77 234.263 1051.18 233.781C1051.6 233.293 1052.1 232.915 1052.7 232.648C1053.29 232.375 1053.95 232.238 1054.69 232.238C1055.43 232.238 1056.1 232.375 1056.69 232.648C1057.29 232.915 1057.8 233.293 1058.21 233.781C1058.64 234.263 1058.96 234.833 1059.18 235.49C1059.4 236.141 1059.51 236.848 1059.51 237.609V237.834C1059.51 238.596 1059.4 239.302 1059.18 239.953C1058.96 240.604 1058.64 241.174 1058.21 241.662C1057.8 242.144 1057.29 242.521 1056.7 242.795C1056.12 243.062 1055.45 243.195 1054.71 243.195C1053.97 243.195 1053.3 243.062 1052.71 242.795C1052.11 242.521 1051.61 242.144 1051.18 241.662C1050.77 241.174 1050.45 240.604 1050.23 239.953C1050.01 239.302 1049.89 238.596 1049.89 237.834ZM1051.7 237.609V237.834C1051.7 238.361 1051.76 238.859 1051.89 239.328C1052.01 239.79 1052.2 240.201 1052.44 240.559C1052.7 240.917 1053.01 241.2 1053.39 241.408C1053.77 241.61 1054.21 241.711 1054.71 241.711C1055.2 241.711 1055.64 241.61 1056.01 241.408C1056.39 241.2 1056.7 240.917 1056.95 240.559C1057.19 240.201 1057.38 239.79 1057.5 239.328C1057.63 238.859 1057.7 238.361 1057.7 237.834V237.609C1057.7 237.089 1057.63 236.597 1057.5 236.135C1057.38 235.666 1057.19 235.253 1056.94 234.895C1056.69 234.53 1056.38 234.243 1056 234.035C1055.63 233.827 1055.19 233.723 1054.69 233.723C1054.19 233.723 1053.76 233.827 1053.38 234.035C1053.01 234.243 1052.7 234.53 1052.44 234.895C1052.2 235.253 1052.01 235.666 1051.89 236.135C1051.76 236.597 1051.7 237.089 1051.7 237.609ZM1067.85 240.598L1071.45 232.434H1073.19L1068.48 243H1067.23L1062.54 232.434H1064.28L1067.85 240.598ZM1063.75 232.434V243H1061.95V232.434H1063.75ZM1071.9 243V232.434H1073.71V243H1071.9ZM1083.66 232.434V233.928H1078.32V232.434H1083.66ZM1078.59 232.434V243H1076.78V232.434H1078.59ZM1085.27 232.434V243H1083.45V232.434H1085.27ZM1094.4 241.193V235.754C1094.4 235.337 1094.31 234.976 1094.14 234.67C1093.98 234.357 1093.73 234.117 1093.4 233.947C1093.07 233.778 1092.66 233.693 1092.17 233.693C1091.71 233.693 1091.31 233.771 1090.97 233.928C1090.63 234.084 1090.36 234.289 1090.17 234.543C1089.98 234.797 1089.88 235.07 1089.88 235.363H1088.08C1088.08 234.986 1088.18 234.611 1088.37 234.24C1088.57 233.869 1088.85 233.534 1089.21 233.234C1089.58 232.928 1090.02 232.688 1090.54 232.512C1091.06 232.329 1091.64 232.238 1092.28 232.238C1093.05 232.238 1093.72 232.368 1094.31 232.629C1094.9 232.889 1095.36 233.283 1095.7 233.811C1096.03 234.331 1096.2 234.986 1096.2 235.773V240.695C1096.2 241.047 1096.23 241.421 1096.29 241.818C1096.36 242.215 1096.45 242.557 1096.57 242.844V243H1094.69C1094.6 242.792 1094.53 242.515 1094.47 242.17C1094.42 241.818 1094.4 241.493 1094.4 241.193ZM1094.71 236.594L1094.73 237.863H1092.9C1092.39 237.863 1091.93 237.906 1091.53 237.99C1091.12 238.068 1090.78 238.189 1090.51 238.352C1090.24 238.514 1090.03 238.719 1089.88 238.967C1089.74 239.208 1089.67 239.491 1089.67 239.816C1089.67 240.148 1089.74 240.451 1089.89 240.725C1090.04 240.998 1090.27 241.216 1090.57 241.379C1090.87 241.535 1091.25 241.613 1091.69 241.613C1092.24 241.613 1092.73 241.496 1093.16 241.262C1093.58 241.027 1093.91 240.741 1094.16 240.402C1094.42 240.064 1094.55 239.735 1094.57 239.416L1095.34 240.285C1095.3 240.559 1095.17 240.861 1094.97 241.193C1094.77 241.525 1094.5 241.844 1094.16 242.15C1093.83 242.45 1093.43 242.701 1092.97 242.902C1092.51 243.098 1092 243.195 1091.43 243.195C1090.71 243.195 1090.08 243.055 1089.54 242.775C1089.01 242.495 1088.59 242.121 1088.29 241.652C1088 241.177 1087.85 240.646 1087.85 240.061C1087.85 239.494 1087.96 238.996 1088.19 238.566C1088.41 238.13 1088.73 237.769 1089.14 237.482C1089.56 237.189 1090.06 236.968 1090.65 236.818C1091.23 236.669 1091.89 236.594 1092.61 236.594H1094.71ZM1106.21 237.014V238.479H1100.63V237.014H1106.21ZM1101.01 232.434V243H1099.2V232.434H1101.01ZM1107.68 232.434V243H1105.86V232.434H1107.68ZM1112.54 240.139L1117.41 232.434H1119.23V243H1117.41V235.295L1112.54 243H1110.74V232.434H1112.54V240.139ZM1124.08 240.139L1128.96 232.434H1130.77V243H1128.96V235.295L1124.08 243H1122.29V232.434H1124.08V240.139ZM1146.8 237.463H1142.8L1141.88 237.082C1140.85 236.757 1140.06 236.258 1139.5 235.588C1138.95 234.911 1138.67 234.071 1138.67 233.068C1138.67 232.15 1138.88 231.372 1139.28 230.734C1139.69 230.096 1140.27 229.611 1141.02 229.279C1141.77 228.947 1142.66 228.781 1143.69 228.781H1148.24V243H1146.36V230.324H1143.69C1142.65 230.324 1141.87 230.572 1141.34 231.066C1140.82 231.561 1140.56 232.229 1140.56 233.068C1140.56 233.615 1140.67 234.104 1140.9 234.533C1141.13 234.963 1141.48 235.301 1141.94 235.549C1142.39 235.796 1142.96 235.92 1143.63 235.92H1146.81L1146.8 237.463ZM1143.6 236.486L1140.14 243H1138.14L1141.69 236.486H1143.6ZM1153.33 232.434V243H1151.53V232.434H1153.33ZM1160.27 232.434L1155.26 238.488H1152.73L1152.45 236.906H1154.52L1158.07 232.434H1160.27ZM1158.32 243L1154.44 238.215L1155.6 236.906L1160.62 243H1158.32ZM1165.16 241.906L1168.1 232.434H1170.03L1165.79 244.631C1165.7 244.891 1165.57 245.171 1165.4 245.471C1165.25 245.777 1165.04 246.066 1164.8 246.34C1164.55 246.613 1164.25 246.835 1163.9 247.004C1163.55 247.18 1163.14 247.268 1162.66 247.268C1162.51 247.268 1162.33 247.248 1162.11 247.209C1161.89 247.17 1161.73 247.137 1161.64 247.111L1161.63 245.646C1161.68 245.653 1161.77 245.66 1161.88 245.666C1161.99 245.679 1162.08 245.686 1162.12 245.686C1162.53 245.686 1162.88 245.63 1163.17 245.52C1163.45 245.415 1163.69 245.236 1163.89 244.982C1164.09 244.735 1164.26 244.393 1164.41 243.957L1165.16 241.906ZM1163 232.434L1165.74 240.637L1166.21 242.541L1164.91 243.205L1161.03 232.434H1163ZM1175.97 232.434V243H1174.15V232.434H1175.97ZM1179.51 232.434V233.898H1170.68V232.434H1179.51ZM1183.24 240.139L1188.12 232.434H1189.93V243H1188.12V235.295L1183.24 243H1181.45V232.434H1183.24V240.139ZM1194.79 240.139L1199.66 232.434H1201.48V243H1199.66V235.295L1194.79 243H1192.99V232.434H1194.79V240.139Z" fill="#A3AAAE"/>
<path fill-rule="evenodd" clip-rule="evenodd" d="M271.842 1.50664C286.356 14.1781 294.467 26.3213 294.377 39.3738C294.287 52.4391 285.979 66.7955 266.661 83.8797C228.037 118.037 146.243 162.375 2.62043 228.327L2.26094 228.191C-1.10745 237.088 -0.738231 243.935 3.54394 248.648C7.7397 253.266 15.4307 255.506 25.8475 255.964C46.7514 256.883 79.7708 250.658 121.728 239.778C175.552 225.822 244.328 204.135 321.56 179.781C364.806 166.144 410.704 151.671 458.112 137.252C590.228 97.0667 734.141 57.2718 865.38 37.0175C996.667 16.7559 1115.06 16.086 1196.27 53.9512L1197.12 52.1385C1115.33 14.0037 996.413 14.7714 865.075 35.0409C733.688 55.3179 589.663 95.148 457.53 135.338C410.063 149.776 364.139 164.257 320.885 177.897L320.88 177.898L320.877 177.899C243.689 202.239 175.003 223.898 121.226 237.842C79.2464 248.728 46.5002 254.87 25.9354 253.966C15.6179 253.512 8.64873 251.292 5.02418 247.303C1.64207 243.581 0.934388 238.018 3.72301 230.021C147.118 164.165 229.124 119.745 267.986 85.3779C287.426 68.186 296.281 53.3288 296.377 39.3875C296.473 25.4333 287.792 12.7768 273.157 0L271.842 1.50664Z" fill="url(#paint1_linear_92_38)"/>
</g>
<defs>
<linearGradient id="paint0_linear_92_38" x1="901.5" y1="72" x2="901.5" y2="198" gradientUnits="userSpaceOnUse">
<stop stop-color="#11BEF4"/>
<stop offset="1" stop-color="#02D1C5"/>
</linearGradient>
<linearGradient id="paint1_linear_92_38" x1="598.559" y1="0" x2="598.559" y2="256.053" gradientUnits="userSpaceOnUse">
<stop stop-color="#11BEF4"/>
<stop offset="1" stop-color="#02D1C5"/>
</linearGradient>
<clipPath id="clip0_92_38">
<rect width="1203" height="256" fill="white"/>
</clipPath>
</defs>
</svg>
