<svg width="193" height="60" viewBox="0 0 193 60" fill="none" xmlns="http://www.w3.org/2000/svg">
<path fill-rule="evenodd" clip-rule="evenodd" d="M132.877 5.90234C127.896 5.90234 123.651 6.68787 120.061 7.87971L120.785 15.261C124.047 14.0827 127.499 13.4868 130.83 13.4868C142.514 13.4868 145.57 20.543 146.308 25.026H126.763V32.6104H146.308C146.171 39.7208 141.394 45.531 131.827 45.531C129.411 45.531 125.289 45.2466 120.525 43.2693L124.128 52.3164C126.626 52.8446 129.056 53.1155 131.485 53.1155C147.304 53.1155 156.271 43.4859 156.271 28.7775C156.271 14.4754 146.826 5.90234 132.877 5.90234ZM168.869 31.4862H174.71C179.979 31.4862 183.023 33.7346 183.023 38.4071C183.023 43.0932 179.979 45.3279 174.71 45.3279H168.869V31.4862ZM159.438 6.43054V52.5872H176.445C189.738 52.5872 193 44.0141 193 39.1384C193 33.1928 190.134 24.2269 176.445 24.2269H168.869V14.5974H189.206V6.43054H159.438ZM90.0063 34.5878L96.4486 15.7214H96.5851L103.423 34.5878H90.0063ZM91.535 6.43054L73 52.5872H83.1001L87.0173 42.2399H106.221L110.138 52.5872H120.771L102.304 6.43054H91.535Z" fill="#2F88F0"/>
<path fill-rule="evenodd" clip-rule="evenodd" d="M35.3431 32.4731L33.0206 34.758L34.5644 38.4274L39.0727 33.9919L35.3431 32.4731ZM32.1599 35.1076H28.8674L27.3236 38.7769H33.69L32.1599 35.1076ZM35.7119 28.3871V31.6129L39.428 33.1317V26.8682L35.7119 28.3871ZM27.9931 34.758L25.6706 32.4731L21.9545 33.9919L26.463 38.4274L27.9931 34.758ZM34.5644 21.5725L33.0206 25.2419L35.3431 27.5269L39.0727 26.0081L34.5644 21.5725ZM28.8674 24.879H32.1599L33.69 21.2231H27.3236L28.8674 24.879ZM25.3153 31.6129V28.3871L21.5994 26.8682V33.1317L25.3153 31.6129ZM25.6706 27.5269L27.9931 25.2419L26.463 21.5725L21.9545 26.0081L25.6706 27.5269ZM28.1296 18.8172H50.6443C51.423 18.8172 52.2018 19.1129 52.8029 19.7043C53.404 20.2956 53.7045 21.0618 53.7045 21.8279C53.7045 22.594 53.404 23.3736 52.8029 23.9651L57.9671 29.0457C59.989 27.0565 61 24.4355 61 21.8279C61 19.2205 59.989 16.6129 57.9671 14.6237C55.9451 12.6344 53.2947 11.6398 50.6443 11.6398H35.4251L28.1296 18.8172ZM36.8596 20.4301L52.7756 36.1022C53.3357 36.6398 53.6772 37.3925 53.6772 38.2258C53.6772 39.0591 53.3357 39.8118 52.7756 40.3629C52.2291 40.9006 51.464 41.2365 50.617 41.2365V48.4274C53.4723 48.4274 56.0681 47.2849 57.9398 45.4436C59.825 43.5887 60.9727 41.0484 60.9727 38.2258C60.9727 35.4166 59.8114 32.8629 57.9398 31.0081L47.1879 20.4301H36.8596ZM41.8734 27.6478V49.7983C41.8734 50.5645 41.5729 51.3441 40.9718 51.9355C40.3706 52.5135 39.5919 52.8091 38.8132 52.8091C38.0344 52.8091 37.2421 52.5135 36.6546 51.9355L31.4768 57.0161C33.5124 59.0054 36.1628 60 38.8132 60C41.4636 60 44.114 59.0054 46.1496 57.0161C48.1716 55.0269 49.1825 52.4059 49.1825 49.7983L49.1688 34.8387L41.8734 27.6478ZM40.234 36.2365L24.318 51.9086C23.7579 52.4462 22.9928 52.7822 22.1457 52.7822C21.2988 52.7822 20.5474 52.4462 19.9872 51.9086C19.4271 51.3575 19.0855 50.6048 19.0855 49.7715H11.7765C11.7765 52.594 12.9377 55.1344 14.8231 56.9893C16.6947 58.8306 19.2905 59.9731 22.1457 59.9731C25.0147 59.9731 27.5968 58.8306 29.4822 56.9893L40.234 46.3979V36.2365ZM32.8976 41.1694H10.3829C9.60425 41.1694 8.81187 40.8737 8.22441 40.2957C7.62329 39.7043 7.32273 38.9381 7.32273 38.1586C7.32273 37.3925 7.62329 36.6264 8.22441 36.0349L3.06024 30.9543C1.02464 32.9435 0.0136618 35.5511 0.0136618 38.1586C0.0136618 40.7661 1.02464 43.3871 3.06024 45.3763C5.08219 47.3656 7.73258 48.3602 10.3829 48.3602H25.6022L32.8976 41.1694ZM24.1268 39.4623L8.21074 23.8038C7.65061 23.2527 7.30906 22.5 7.30906 21.6667C7.30906 20.8333 7.65061 20.0806 8.21074 19.543C8.75722 18.992 9.52228 18.6559 10.3693 18.6559V11.4784C7.51399 11.4784 4.91825 12.621 3.04658 14.4624C1.16126 16.3037 0 18.8575 0 21.6667C0 24.4893 1.16126 27.0296 3.04658 28.8844L13.7984 39.4623H24.1268ZM19.1538 32.3387V10.1882C19.1538 9.42204 19.4544 8.65591 20.0556 8.06451C20.643 7.47312 21.4353 7.19086 22.2141 7.17741C22.9928 7.17741 23.7715 7.47312 24.3727 8.06451L29.5505 2.98387C27.5149 0.994623 24.8645 0 22.2141 0C19.5637 0 16.9133 0.994623 14.8777 2.98387C12.8558 4.97312 11.8448 7.58064 11.8448 10.2017V25.1613L19.1538 32.3387ZM20.7933 23.75L36.7093 8.09139C37.2694 7.54032 38.0344 7.21774 38.8815 7.21774C39.7286 7.21774 40.4799 7.55377 41.0401 8.09139C41.6002 8.64247 41.9417 9.38172 41.9417 10.2284H49.2509C49.2509 7.40591 48.0759 4.85215 46.2043 3.01075C44.3326 1.16935 41.7368 0.0268814 38.8815 0.0268814C36.0125 0.0268814 33.4167 1.16935 31.5451 3.01075L20.7933 13.5887V23.75ZM32.3375 34.328L34.906 31.7876V28.1989L32.3375 25.672H28.6898L26.1077 28.1989V31.7876L28.6898 34.328H32.3375ZM26.4903 39.5564L20.7933 33.965V26.035L26.4903 20.4301H34.537L40.234 26.035V33.965L34.537 39.5564H26.4903Z" fill="#2F88F0"/>
</svg>
